<svg width="25" height="20" viewBox="0 0 25 20" fill="none" xmlns="http://www.w3.org/2000/svg">
<path d="M24.6133 10.5536C23.585 4.21304 19.1762 -0.445067 15.2503 0.661039C14.4246 0.894697 13.7703 1.43998 11.1375 4.16632C9.76655 5.58398 9.34589 5.92673 9.11223 5.84882C6.5573 4.85176 4.95264 6.09807 4.96818 9.08926C4.96818 10.6783 5.04614 11.0989 5.56023 12.7036C5.70045 13.1242 3.92439 14.7755 1.69662 17.1279C-0.0949515 18.7637 1.79008 19.2623 4.48527 18.3899C9.12777 16.8943 8.41114 16.9566 10.0157 17.8602C12.6486 19.3402 16.076 19.8854 17.6339 19.0754C17.9455 18.9195 18.1169 18.5924 18.0857 18.2341C18.0857 18.2185 17.9455 16.6918 17.9455 16.7073C20.0798 15.8505 22.6503 14.9781 23.8655 14.1056C25.0806 13.2177 24.9092 12.3608 24.6133 10.5536ZM4.46973 16.941C4.29833 16.941 6.33917 14.6976 6.47939 14.5419C6.51052 14.7288 6.94676 15.4299 7.56989 15.8505C7.58548 15.9284 4.75017 16.941 4.46973 16.941ZM20.2511 13.5292C19.3787 13.7318 16.6368 14.8223 15.671 15.3675C14.9699 15.757 14.9387 15.8038 15.0322 16.3023C15.3749 18.2029 15.4684 18.0939 13.8171 17.6732C10.0781 16.7074 5.74717 9.36963 7.46086 6.8926C7.94377 6.19157 8.61367 7.07954 8.66045 8.49726C8.70717 9.99282 10.0313 12.4543 10.9661 13.0619C11.5114 13.4202 11.7917 12.984 11.6515 12.7036C9.84439 9.36969 10.1404 8.48166 10.265 7.98316C10.265 7.98316 14.2377 3.96379 14.5649 3.60545C15.7644 2.32801 16.8238 2.26569 17.9922 3.38738C20.1421 5.47494 21.7935 8.79323 22.2141 11.8311C22.3076 12.6413 21.6533 13.2177 20.2511 13.5292Z" fill="#006B99"/>
</svg>
