<svg width="20" height="24" viewBox="0 0 20 24" fill="none" xmlns="http://www.w3.org/2000/svg">
<path fill-rule="evenodd" clip-rule="evenodd" d="M7.67842 0.16786C7.41661 0.269678 7.2857 0.415115 7.31479 0.575109C7.35842 0.822376 2.02036 8.03669 0.653144 12.4147C0.231326 13.782 0.914963 13.9711 4.02763 13.3747C5.91848 13.0111 5.8457 12.6329 4.59485 16.1528C3.664 18.7418 2.98036 20.909 2.66042 22.2326C2.22405 23.978 3.14036 24.8943 5.40939 22.5235C6.38388 21.5053 8.59473 19.2218 13.7727 13.3165C18.1653 8.31306 18.1507 8.44397 14.689 8.31306L12.551 8.22579C13.5546 7.16403 17.3071 3.12051 18.4562 2.17505C19.6052 1.21509 19.9689 0.822388 18.4272 0.604212C16.6381 0.342399 10.5874 0.240587 8.81291 0.0805929C8.40564 0.0369624 7.89661 0.080593 7.67842 0.16786ZM16.3035 1.6369L15.5472 2.26232C13.7 3.77499 10.0492 8.12397 10.0492 8.793C10.0492 9.52027 11.271 9.44755 14.4273 9.44755C9.77285 14.8437 6.13661 19.0473 6.04933 19.0473C6.02024 19.0473 6.35485 18.0873 6.8057 16.8946C8.49291 12.3711 8.58018 11.5275 7.38752 11.6729C5.32212 11.9202 3.30036 12.1966 3.024 12.2838C2.77678 12.3565 2.93672 11.9639 3.86757 10.2185C5.52575 7.04766 6.19479 6.1313 9.10382 1.28782C14.6454 1.53508 14.5872 1.53509 16.3035 1.6369Z" fill="#006B99"/>
</svg>
